<svg width="24" height="24" viewBox="0 0 24 24" fill="none" xmlns="http://www.w3.org/2000/svg">
<mask id="mask0_0_327" style="mask-type:luminance" maskUnits="userSpaceOnUse" x="0" y="0" width="24" height="24">
<path fill-rule="evenodd" clip-rule="evenodd" d="M9.53674e-06 23.9905H23.9905V0H9.53674e-06V23.9905Z" fill="white"/>
</mask>
<g mask="url(#mask0_0_327)">
<path fill-rule="evenodd" clip-rule="evenodd" d="M22.6664 0H1.32405C0.592729 0 9.53674e-06 0.592719 9.53674e-06 1.32404V22.6664C9.53674e-06 23.3977 0.592729 23.9906 1.32405 23.9906H12.8141V14.7001H9.68765V11.0795H12.8141V8.40935C12.8141 5.31074 14.7066 3.62346 17.4708 3.62346C18.795 3.62346 19.933 3.72198 20.2645 3.76602V7.00431L18.3474 7.00521C16.8441 7.00521 16.553 7.71955 16.553 8.76782V11.0795H20.1383L19.6716 14.7001H16.553V23.9906H22.6664C23.3977 23.9906 23.9905 23.3977 23.9905 22.6664V1.32404C23.9905 0.592719 23.3977 0 22.6664 0Z" fill="#EBCB80"/>
</g>
</svg>
