<svg width="25" height="24" viewBox="0 0 25 24" fill="none" xmlns="http://www.w3.org/2000/svg">
<mask id="mask0_0_13" style="mask-type:luminance" maskUnits="userSpaceOnUse" x="0" y="0" width="25" height="24">
<path fill-rule="evenodd" clip-rule="evenodd" d="M0.538469 23.9905H24.5289V0H0.538469V23.9905Z" fill="white"/>
</mask>
<g mask="url(#mask0_0_13)">
<path fill-rule="evenodd" clip-rule="evenodd" d="M23.2049 0H1.86251C1.13119 0 0.538469 0.592719 0.538469 1.32404V22.6664C0.538469 23.3977 1.13119 23.9906 1.86251 23.9906H13.3526V14.7001H10.2261V11.0795H13.3526V8.40935C13.3526 5.31074 15.2451 3.62346 18.0093 3.62346C19.3334 3.62346 20.4714 3.72198 20.803 3.76602V7.00431L18.8859 7.00521C17.3826 7.00521 17.0915 7.71955 17.0915 8.76782V11.0795H20.6768L20.21 14.7001H17.0915V23.9906H23.2049C23.9361 23.9906 24.5289 23.3977 24.5289 22.6664V1.32404C24.5289 0.592719 23.9361 0 23.2049 0Z" fill="white"/>
</g>
</svg>
