<svg width="25" height="25" viewBox="0 0 25 25" fill="none" xmlns="http://www.w3.org/2000/svg">
<path fill-rule="evenodd" clip-rule="evenodd" d="M21.088 20.5081H17.4266V14.9231C17.4266 13.5916 17.4025 11.8783 15.5231 11.8783C13.6176 11.8783 13.3268 13.3295 13.3268 14.8282V20.5081H9.66877V9.02402H13.1793V10.5942H13.2294C13.7178 9.69114 14.9133 8.73926 16.6954 8.73926C20.4028 8.73926 21.088 11.1169 21.088 14.2099V20.5081ZM5.53883 7.45517C4.36247 7.45517 3.41453 6.52802 3.41453 5.38496C3.41453 4.24258 4.36247 3.31543 5.53883 3.31543C6.71039 3.31543 7.66176 4.24258 7.66176 5.38496C7.66176 6.52802 6.71039 7.45517 5.53883 7.45517ZM3.70536 20.5082H7.37093V9.02417H3.70536V20.5082ZM22.9119 0.00268555H1.86777C0.862893 0.00268555 0.0459595 0.779429 0.0459595 1.73799V22.3304C0.0459595 23.2889 0.862893 24.067 1.86777 24.067H22.9119C23.9195 24.067 24.7385 23.2889 24.7385 22.3304V1.73799C24.7385 0.779429 23.9195 0.00268555 22.9119 0.00268555Z" fill="#7D7D7D"/>
</svg>
