<svg width="28" height="18" viewBox="0 0 28 18" fill="none" xmlns="http://www.w3.org/2000/svg">
<path fill-rule="evenodd" clip-rule="evenodd" d="M9.21189 7.35429V10.296H13.9673C13.7757 11.5585 12.5299 13.9977 9.21189 13.9977C6.34906 13.9977 4.01327 11.5707 4.01327 8.58C4.01327 5.58926 6.34906 3.16234 9.21189 3.16234C10.841 3.16234 11.931 3.87326 12.5539 4.48611L14.8298 2.24306C13.3684 0.845743 11.4758 0 9.21189 0C4.57626 0 0.827026 3.83649 0.827026 8.58C0.827026 13.3235 4.57626 17.16 9.21189 17.16C14.0512 17.16 17.2614 13.679 17.2614 8.77611C17.2614 8.21229 17.2015 7.78329 17.1296 7.35429H9.21189Z" fill="#EBCB80"/>
<path fill-rule="evenodd" clip-rule="evenodd" d="M27.1795 7.35426H24.7838V4.90283H22.3881V7.35426H19.9924V9.80569H22.3881V12.2571H24.7838V9.80569H27.1795" fill="#EBCB80"/>
</svg>
