<svg width="36" height="24" viewBox="0 0 36 24" fill="none" xmlns="http://www.w3.org/2000/svg">
<path fill-rule="evenodd" clip-rule="evenodd" d="M11.2203 9.83469V13.7675H17.5837C17.3273 15.4553 15.6603 18.7163 11.2203 18.7163C7.38934 18.7163 4.2637 15.4717 4.2637 11.4734C4.2637 7.47501 7.38934 4.23045 11.2203 4.23045C13.4002 4.23045 14.8588 5.18087 15.6923 6.00021L18.7378 3.00145C16.7823 1.13337 14.2497 0.00268555 11.2203 0.00268555C5.01706 0.00268555 0 5.13171 0 11.4734C0 17.815 5.01706 22.944 11.2203 22.944C17.6959 22.944 21.9917 18.2902 21.9917 11.7355C21.9917 10.9818 21.9116 10.4082 21.8154 9.83469H11.2203Z" fill="#7D7D7D"/>
<path fill-rule="evenodd" clip-rule="evenodd" d="M35.2637 9.83471H32.0579V6.55737H28.8521V9.83471H25.6463V13.112H28.8521V16.3894H32.0579V13.112H35.2637" fill="#7D7D7D"/>
</svg>
