<svg width="38" height="50" viewBox="0 0 38 50" fill="none" xmlns="http://www.w3.org/2000/svg">
<path fill-rule="evenodd" clip-rule="evenodd" d="M23.5353 2.99681C22.2545 1.58941 20.0719 1.48671 18.6645 2.76751L2.99679 17.0265C1.58939 18.3074 1.48669 20.49 2.76759 21.8974L14.9265 35.2575C16.2074 36.6649 18.3899 36.7677 19.7973 35.4868L35.465 21.2278C36.8724 19.9469 36.9752 17.7644 35.6943 16.3569L23.5353 2.99681Z" stroke="#4B4B4B" stroke-width="2" stroke-linecap="round" stroke-linejoin="round"/>
<path d="M2.89867 24.371C1.54447 25.6033 1.44577 27.7002 2.67817 29.0543L14.3692 41.9002C15.6016 43.2544 17.6984 43.3531 19.0525 42.1207L34.1172 28.4105C35.4713 27.1781 35.57 25.0813 34.3376 23.7271" stroke="#4B4B4B" stroke-width="2" stroke-linecap="round" stroke-linejoin="round"/>
<path d="M2.86061 30.621C1.52751 31.8342 1.43031 33.8984 2.64361 35.2315L14.1529 47.8779C15.3662 49.211 17.4304 49.3082 18.7635 48.0949L33.5941 34.5977C34.9272 33.3845 35.0244 31.3202 33.8111 29.9871" stroke="#4B4B4B" stroke-width="2" stroke-linecap="round" stroke-linejoin="round"/>
<path d="M8.59229 18.9448L20.5923 7.94482" stroke="#4B4B4B" stroke-width="2" stroke-linecap="round" stroke-linejoin="round"/>
</svg>
