<svg width="20" height="18" viewBox="0 0 20 18" fill="none" xmlns="http://www.w3.org/2000/svg">
<mask id="mask0_0_2075" style="mask-type:luminance" maskUnits="userSpaceOnUse" x="0" y="0" width="20" height="18">
<path fill-rule="evenodd" clip-rule="evenodd" d="M0.976685 17.97H19.4293V0H0.976685V17.97Z" fill="white"/>
</mask>
<g mask="url(#mask0_0_2075)">
<path fill-rule="evenodd" clip-rule="evenodd" d="M16.7013 15.338H13.9651V11.1605C13.9651 10.1645 13.9472 8.88303 12.5427 8.88303C11.1187 8.88303 10.9014 9.96853 10.9014 11.0895V15.338H8.16772V6.74803H10.7912V7.92253H10.8286C11.1935 7.24703 12.087 6.53503 13.4187 6.53503C16.1892 6.53503 16.7013 8.31353 16.7013 10.627V15.338ZM5.0815 5.57453C4.20242 5.57453 3.49402 4.88103 3.49402 4.02603C3.49402 3.17153 4.20242 2.47803 5.0815 2.47803C5.95701 2.47803 6.66796 3.17153 6.66796 4.02603C6.66796 4.88103 5.95701 5.57453 5.0815 5.57453ZM3.7113 15.338H6.45058V6.74805H3.7113V15.338ZM18.0643 0H2.33812C1.58718 0 0.976685 0.581 0.976685 1.298V16.701C0.976685 17.418 1.58718 18 2.33812 18H18.0643C18.8173 18 19.4293 17.418 19.4293 16.701V1.298C19.4293 0.581 18.8173 0 18.0643 0Z" fill="#EBCB80"/>
</g>
</svg>
