<svg width="25" height="24" viewBox="0 0 25 24" fill="none" xmlns="http://www.w3.org/2000/svg">
<mask id="mask0_0_340" style="mask-type:luminance" maskUnits="userSpaceOnUse" x="0" y="0" width="25" height="24">
<path fill-rule="evenodd" clip-rule="evenodd" d="M0.0459595 23.96H24.7385V0H0.0459595V23.96Z" fill="white"/>
</mask>
<g mask="url(#mask0_0_340)">
<path fill-rule="evenodd" clip-rule="evenodd" d="M21.088 20.4507H17.4266V14.8807C17.4266 13.5527 17.4026 11.844 15.5231 11.844C13.6176 11.844 13.3268 13.2914 13.3268 14.786V20.4507H9.66878V8.99738H13.1793V10.5634H13.2294C13.7178 9.66271 14.9133 8.71338 16.6954 8.71338C20.4028 8.71338 21.088 11.0847 21.088 14.1694V20.4507ZM5.53882 7.43262C4.36247 7.43262 3.41452 6.50796 3.41452 5.36796C3.41452 4.22862 4.36247 3.30396 5.53882 3.30396C6.71038 3.30396 7.66175 4.22862 7.66175 5.36796C7.66175 6.50796 6.71038 7.43262 5.53882 7.43262ZM3.70535 20.4506H7.37092V8.99731H3.70535V20.4506ZM22.9119 0H1.86777C0.862893 0 0.0459595 0.774667 0.0459595 1.73067V22.268C0.0459595 23.224 0.862893 24 1.86777 24H22.9119C23.9195 24 24.7385 23.224 24.7385 22.268V1.73067C24.7385 0.774667 23.9195 0 22.9119 0Z" fill="#EBCB80"/>
</g>
</svg>
