<svg width="25" height="26" viewBox="0 0 25 26" fill="none" xmlns="http://www.w3.org/2000/svg">
<mask id="mask0_0_296" style="mask-type:luminance" maskUnits="userSpaceOnUse" x="0" y="0" width="25" height="25">
<path fill-rule="evenodd" clip-rule="evenodd" d="M0.0459595 24.0269H24.7385V0.00268555H0.0459595V24.0269Z" fill="white"/>
</mask>
<g mask="url(#mask0_0_296)">
<path fill-rule="evenodd" clip-rule="evenodd" d="M21.088 20.5082H17.4266V14.9232C17.4266 13.5917 17.4026 11.8784 15.5231 11.8784C13.6176 11.8784 13.3268 13.3297 13.3268 14.8283V20.5082H9.66877V9.02414H13.1793V10.5943H13.2294C13.7178 9.69126 14.9133 8.73938 16.6954 8.73938C20.4028 8.73938 21.088 11.1171 21.088 14.21V20.5082ZM5.53883 7.45528C4.36247 7.45528 3.41453 6.52813 3.41453 5.38508C3.41453 4.24269 4.36247 3.31554 5.53883 3.31554C6.71039 3.31554 7.66176 4.24269 7.66176 5.38508C7.66176 6.52813 6.71039 7.45528 5.53883 7.45528ZM3.70536 20.5082H7.37093V9.02414H3.70536V20.5082ZM22.9119 0.00268555H1.86777C0.862893 0.00268555 0.0459595 0.779429 0.0459595 1.73799V22.3304C0.0459595 23.2889 0.862893 24.067 1.86777 24.067H22.9119C23.9195 24.067 24.7385 23.2889 24.7385 22.3304V1.73799C24.7385 0.779429 23.9195 0.00268555 22.9119 0.00268555Z" fill="#7D7D7D"/>
</g>
</svg>
