<svg width="25" height="25" viewBox="0 0 25 25" fill="none" xmlns="http://www.w3.org/2000/svg">
<path fill-rule="evenodd" clip-rule="evenodd" d="M0.297333 12.3141C0.297333 17.3979 3.4602 21.7402 7.92457 23.4882C7.81936 22.5392 7.72445 21.0824 7.96577 20.0465C8.18428 19.11 9.3732 14.0813 9.3732 14.0813C9.3732 14.0813 9.01417 13.3625 9.01417 12.3001C9.01417 10.6315 9.98091 9.38591 11.1853 9.38591C12.2094 9.38591 12.7038 10.154 12.7038 11.0759C12.7038 12.1059 12.0483 13.645 11.7099 15.0716C11.4273 16.2656 12.3087 17.2397 13.4866 17.2397C15.6195 17.2397 17.2594 14.9906 17.2594 11.7446C17.2594 8.87164 15.195 6.86238 12.2469 6.86238C8.83245 6.86238 6.82834 9.42343 6.82834 12.0706C6.82834 13.1013 7.22563 14.2078 7.72151 14.8089C7.81936 14.9274 7.83407 15.0318 7.80464 15.1532C7.71341 15.5321 7.51109 16.3473 7.47136 16.5136C7.41913 16.7336 7.297 16.7799 7.06966 16.6747C5.57099 15.9765 4.63442 13.7855 4.63442 12.0257C4.63442 8.24039 7.38455 4.7641 12.5633 4.7641C16.7253 4.7641 19.961 7.73053 19.961 11.6946C19.961 15.8301 17.3528 19.1585 13.7338 19.1585C12.5177 19.1585 11.3751 18.5265 10.9837 17.7805C10.9837 17.7805 10.3819 20.0715 10.2362 20.6329C9.96472 21.6754 9.23342 22.9821 8.74416 23.7788C9.86687 24.1261 11.0602 24.3137 12.2977 24.3137C18.9244 24.3137 24.2973 18.9415 24.2973 12.3141C24.2973 5.6867 18.9244 0.314453 12.2977 0.314453C5.67031 0.314453 0.297333 5.6867 0.297333 12.3141Z" fill="#EBCB80"/>
</svg>
