<svg width="25" height="25" viewBox="0 0 25 25" fill="none" xmlns="http://www.w3.org/2000/svg">
<path fill-rule="evenodd" clip-rule="evenodd" d="M12.2977 0.315186C5.67031 0.315186 0.297333 5.70183 0.297333 12.347C0.297333 17.4445 3.4602 21.7983 7.92457 23.5511C7.81936 22.5995 7.72445 21.1388 7.96577 20.1002C8.18428 19.1611 9.3732 14.1189 9.3732 14.1189C9.3732 14.1189 9.01417 13.3982 9.01417 12.333C9.01417 10.6599 9.98091 9.41096 11.1853 9.41096C12.2094 9.41096 12.7038 10.1811 12.7038 11.1054C12.7038 12.1382 12.0483 13.6815 11.7099 15.1119C11.4273 16.3091 12.3087 17.2859 13.4866 17.2859C15.6195 17.2859 17.2594 15.0307 17.2594 11.776C17.2594 8.89531 15.195 6.88067 12.2469 6.88067C8.83245 6.88067 6.82834 9.44858 6.82834 12.1028C6.82834 13.1363 7.22563 14.2458 7.72151 14.8485C7.81936 14.9673 7.83407 15.072 7.80464 15.1938C7.71341 15.5737 7.51109 16.391 7.47136 16.5578C7.41913 16.7783 7.297 16.8248 7.06966 16.7193C5.57099 16.0192 4.63442 13.8224 4.63442 12.0578C4.63442 8.26237 7.38455 4.77676 12.5633 4.77676C16.7253 4.77676 19.961 7.75115 19.961 11.7258C19.961 15.8724 17.3528 19.2098 13.7338 19.2098C12.5177 19.2098 11.3751 18.5761 10.9837 17.8281C10.9837 17.8281 10.3819 20.1252 10.2362 20.6881C9.96472 21.7334 9.23342 23.0436 8.74416 23.8425C9.86687 24.1907 11.0602 24.3788 12.2977 24.3788C18.9244 24.3788 24.2973 18.9921 24.2973 12.347C24.2973 5.70183 18.9244 0.315186 12.2977 0.315186Z" fill="#7D7D7D"/>
</svg>
