<svg width="55" height="46" viewBox="0 0 55 46" fill="none" xmlns="http://www.w3.org/2000/svg">
<path fill-rule="evenodd" clip-rule="evenodd" d="M1 5C1 2.79086 2.79086 1 5 1H42C44.2091 1 46 2.79086 46 5V26.2558C46 28.465 44.2091 30.2558 42 30.2558H5C2.79086 30.2558 1 28.465 1 26.2558V5Z" stroke="#4B4B4B" stroke-width="2"/>
<path d="M26.799 30.7136V36.0485" stroke="#4B4B4B" stroke-width="2" stroke-linecap="round" stroke-linejoin="round"/>
<path d="M19.739 30.7136V36.0485" stroke="#4B4B4B" stroke-width="2" stroke-linecap="round" stroke-linejoin="round"/>
<path d="M29.099 36.9089H17.5991" stroke="#4B4B4B" stroke-width="2" stroke-linecap="round" stroke-linejoin="round"/>
<path fill-rule="evenodd" clip-rule="evenodd" d="M32 15C32 12.7909 33.7909 11 36 11H50C52.2091 11 54 12.7909 54 15V41C54 43.2091 52.2091 45 50 45H36C33.7909 45 32 43.2091 32 41V15Z" fill="white" stroke="#4B4B4B" stroke-width="2"/>
<path d="M32.5554 36.4865H53.7967" stroke="#4B4B4B" stroke-width="2" stroke-linecap="round" stroke-linejoin="round"/>
<path fill-rule="evenodd" clip-rule="evenodd" d="M43.3793 38.9556C44.2167 38.9556 44.8965 39.6327 44.8965 40.4667C44.8965 41.3007 44.2167 41.9778 43.3793 41.9778C42.5419 41.9778 41.8621 41.3007 41.8621 40.4667C41.8621 39.6327 42.5419 38.9556 43.3793 38.9556Z" fill="#4B4B4B"/>
</svg>
