<svg width="24" height="18" viewBox="0 0 24 18" fill="none" xmlns="http://www.w3.org/2000/svg">
<mask id="mask0_0_2069" style="mask-type:luminance" maskUnits="userSpaceOnUse" x="0" y="0" width="24" height="18">
<path fill-rule="evenodd" clip-rule="evenodd" d="M0.887817 17.9952H23.4V0.0664062H0.887817V17.9952Z" fill="white"/>
</mask>
<g mask="url(#mask0_0_2069)">
<path fill-rule="evenodd" clip-rule="evenodd" d="M23.4 2.18936C22.5715 2.54944 21.6812 2.7928 20.7467 2.90225C21.7006 2.34191 22.433 1.45467 22.7779 0.397509C21.8854 0.916281 20.8967 1.29307 19.8444 1.49616C19.0017 0.616254 17.8011 0.0664062 16.4724 0.0664062C13.9211 0.0664062 11.8526 2.09346 11.8526 4.59369C11.8526 4.94852 11.8936 5.29407 11.9723 5.62542C8.1329 5.43662 4.72894 3.6342 2.45046 0.895133C2.05281 1.5638 1.825 2.34151 1.825 3.1712C1.825 4.74189 2.64063 6.12764 3.88019 6.9395C3.12287 6.91601 2.41059 6.71236 1.78769 6.37327C1.78736 6.39216 1.78736 6.41112 1.78736 6.43017C1.78736 8.62375 3.37976 10.4536 5.4931 10.8695C5.10541 10.973 4.69731 11.0282 4.27594 11.0282C3.97828 11.0282 3.68886 10.9999 3.40685 10.947C3.99467 12.7458 5.70073 14.0547 7.72224 14.0912C6.14121 15.3055 4.14927 16.0293 1.98495 16.0293C1.61209 16.0293 1.24434 16.0079 0.882935 15.9661C2.92734 17.2506 5.35563 18.0001 7.96447 18.0001C16.4616 18.0001 21.1082 11.1014 21.1082 5.11868C21.1082 4.92237 21.1038 4.72711 21.0949 4.53299C21.9974 3.89468 22.7807 3.09727 23.4 2.18936Z" fill="#EBCB80"/>
</g>
</svg>
