<svg width="30" height="24" viewBox="0 0 30 24" fill="none" xmlns="http://www.w3.org/2000/svg">
<mask id="mask0_0_287" style="mask-type:luminance" maskUnits="userSpaceOnUse" x="0" y="0" width="30" height="24">
<path fill-rule="evenodd" clip-rule="evenodd" d="M0 23.9692H29.4167V0H0V23.9692Z" fill="white"/>
</mask>
<g mask="url(#mask0_0_287)">
<path fill-rule="evenodd" clip-rule="evenodd" d="M29.4231 2.83819C28.3406 3.31958 27.1771 3.64494 25.9561 3.79127C27.2024 3.04214 28.1595 1.85598 28.6103 0.442654C27.4439 1.1362 26.152 1.63994 24.777 1.91144C23.6758 0.735096 22.107 0 20.3708 0C17.037 0 14.3341 2.70999 14.3341 6.05256C14.3341 6.52694 14.3876 6.98891 14.4905 7.43189C9.47354 7.17948 5.02558 4.76981 2.04829 1.10793C1.52868 2.00187 1.231 3.0416 1.231 4.15083C1.231 6.25069 2.29679 8.10332 3.91652 9.18869C2.92692 9.15729 1.9962 8.88503 1.18224 8.43169C1.18181 8.45694 1.18181 8.4823 1.18181 8.50777C1.18181 11.4404 3.2626 13.8867 6.02411 14.4427C5.51752 14.581 4.98425 14.655 4.43365 14.655C4.0447 14.655 3.66651 14.6171 3.29801 14.5464C4.06612 16.9511 6.29543 18.701 8.93693 18.7499C6.871 20.3732 4.26813 21.3409 1.44 21.3409C0.952789 21.3409 0.472251 21.3123 0 21.2564C2.67143 22.9737 5.84448 23.9756 9.25345 23.9756C20.3567 23.9756 26.4284 14.7527 26.4284 6.75442C26.4284 6.49198 26.4226 6.23094 26.411 5.97141C27.5903 5.11804 28.6138 4.05198 29.4231 2.83819Z" fill="#7D7D7D"/>
</g>
</svg>
